PathFileType	4	(X/Y/Z)	E:\3-PhD\Data\MocapData\ElaboratedData\009\pre\dynamicElaborations\RunA3\RunA3.trc
DataRate	CameraRate	NumFrames	NumMarkers	Units	OrigDataRate	DataStartFrame
200	200	4	54	mm	200	570
Frame#	Time	FHD			LBHD			RBHD			C7			T10			CLAV			LSHO			LUUPA			LMUPA			LDUPA			LLEP			LMEP			LRAD			LUL			LRFIN			RSHO			RUPA1			RMUPA			RDUPA			RLEP			RMEP			RRAD			RUL			RUFIN			RASI			USACR			LSACR			RSACR			LTHI1			LTHI2			LTHI3			LTHI4			LTIB1			LTIB2			LTIB3			LTIB4			LLMAL			LHEE			LMT1			LMT2			RTHI			RTHI2			RTHI3			RTHI4			RLFC			RTIB1			RTIB2			RTIB3			RTIB4			RLMAL			RHEE			RMT1			RMT2			RMT5		
		X1	Y1	Z1	X2	Y2	Z2	X3	Y3	Z3	X4	Y4	Z4	X5	Y5	Z5	X6	Y6	Z6	X7	Y7	Z7	X8	Y8	Z8	X9	Y9	Z9	X10	Y10	Z10	X11	Y11	Z11	X12	Y12	Z12	X13	Y13	Z13	X14	Y14	Z14	X15	Y15	Z15	X16	Y16	Z16	X17	Y17	Z17	X18	Y18	Z18	X19	Y19	Z19	X20	Y20	Z20	X21	Y21	Z21	X22	Y22	Z22	X23	Y23	Z23	X24	Y24	Z24	X25	Y25	Z25	X26	Y26	Z26	X27	Y27	Z27	X28	Y28	Z28	X29	Y29	Z29	X30	Y30	Z30	X31	Y31	Z31	X32	Y32	Z32	X33	Y33	Z33	X34	Y34	Z34	X35	Y35	Z35	X36	Y36	Z36	X37	Y37	Z37	X38	Y38	Z38	X39	Y39	Z39	X40	Y40	Z40	X41	Y41	Z41	X42	Y42	Z42	X43	Y43	Z43	X44	Y44	Z44	X45	Y45	Z45	X46	Y46	Z46	X47	Y47	Z47	X48	Y48	Z48	X49	Y49	Z49	X50	Y50	Z50	X51	Y51	Z51	X52	Y52	Z52	X53	Y53	Z53	X54	Y54	Z54	

609	3.040000	-11.833434	1431.256242	931.798308	-110.774174	1435.404842	763.456774	-147.535635	1420.265865	883.926762	-192.570100	1314.179517	800.017323	-407.041184	1038.551919	755.358642	-121.293212	1168.605862	831.062531	-80.388224	1247.488304	709.012054	-31.047737	1111.678851	587.421829	9.427771	1098.060264	609.443085	4.983664	1055.390389	567.634220	62.601170	951.685062	544.537907	35.965930	901.740382	600.340082	162.674707	1076.419046	743.612515	226.976474	1045.059623	722.514397	189.118846	1140.203370	730.884550	-183.672127	1242.307713	984.517966	-360.373094	1225.506071	1022.939563	-379.099111	1181.649774	1016.807153	-427.675585	1218.176569	1018.241917	-564.594433	1183.524790	1000.009568	-561.588144	1196.148783	928.427028	-576.843911	925.032915	932.697650	-645.554747	939.382602	944.918743	-586.815949	862.183929	977.872527	-299.520272	807.069921	824.178039	-448.848537	943.363507	729.758336	-448.888463	923.788977	692.311246	-461.101603	903.548356	745.781212	-321.546873	706.823009	437.952841	-305.410454	627.533250	410.187129	-267.360493	611.781398	433.255806	-342.399868	588.345060	384.093528	-429.287464	322.926983	278.858591	-484.221862	355.046210	217.267184	-463.898323	319.517234	232.269224	-519.288283	255.248706	217.034984	-644.136179	204.672469	125.228505	-734.833905	221.300269	139.699706	-608.935323	46.853261	159.675971	-593.719499	61.490818	116.376224	-254.924468	614.625320	884.384174	-194.219875	610.499700	907.082303	-174.638716	639.188600	912.690417	-136.893060	549.073246	885.029674	-38.563996	501.597716	877.576190	115.611739	358.851348	805.161553	82.666529	263.870637	768.230808	126.033886	279.466606	778.183132	168.354090	262.827720	744.564565	155.000767	158.436238	702.136602	152.935809	128.244831	607.870275	319.361257	194.373451	748.110927	298.072193	172.921409	774.549826	255.352329	116.260321	778.706405	
610	3.045000	9.157550	1435.853446	947.323146	-90.429520	1439.896299	779.335742	-126.501842	1424.412643	899.889171	-170.825011	1317.878004	814.332919	-382.224230	1040.914340	764.788055	-98.848503	1172.840476	845.458467	-57.136853	1251.316674	724.044732	-9.629150	1116.383190	599.412908	30.479404	1101.252732	620.992710	24.899550	1059.827281	578.089807	79.676162	955.362945	551.671287	52.390685	904.866182	607.175288	183.933838	1074.127863	752.087985	247.255543	1041.506165	730.347227	211.671883	1137.364662	739.897449	-164.514089	1245.459246	998.452188	-341.658743	1229.261418	1033.469047	-360.382321	1185.577117	1026.892295	-408.861409	1222.320561	1027.003010	-545.593099	1187.550245	1006.085183	-540.557526	1199.361882	934.072256	-550.565849	927.936166	939.914116	-619.930349	940.991843	950.088924	-560.490946	865.265381	985.195824	-276.078221	809.160851	834.673406	-423.469296	946.474607	738.315902	-422.963067	927.126631	700.687129	-436.064348	906.692103	753.750839	-297.054864	710.707930	448.666411	-283.857456	629.988104	421.385222	-246.937142	613.159123	445.251806	-322.071410	592.947249	394.714711	-415.762487	329.227465	287.938139	-469.957637	361.827733	225.885825	-449.835857	326.171675	240.916605	-505.297353	262.115137	224.681294	-629.646874	212.421955	130.939402	-718.810982	233.393008	147.028903	-604.202473	50.104456	162.858514	-588.417219	64.383633	119.737062	-231.677891	613.615086	891.891088	-171.124763	608.634046	914.817790	-151.368329	637.003914	921.092149	-114.069124	547.257667	892.041669	-16.134748	499.681330	885.612244	139.509347	357.615669	816.402828	107.399340	261.987950	780.629205	150.930336	277.895959	790.415702	193.786701	261.275436	757.518197	181.718401	156.236318	716.056747	180.637147	125.289490	622.037684	345.922506	192.603926	763.040586	324.419957	171.344349	789.543763	281.754084	114.684116	793.759147	
611	3.050000	30.110117	1440.155788	962.830448	-70.131498	1444.148599	795.190330	-105.493130	1428.212773	915.808630	-149.004938	1321.324532	828.537137	-357.462043	1043.216865	774.340279	-76.325689	1176.791130	859.590144	-33.878278	1254.879477	738.931793	11.645492	1120.847414	611.254089	51.315934	1104.135809	632.355757	44.563798	1064.071504	588.343397	96.332218	958.922411	558.545654	68.442030	907.906323	613.577612	205.258448	1070.932828	760.188518	267.430614	1036.935454	737.646836	234.469714	1133.523376	748.643298	-145.363024	1248.288001	1012.232790	-322.914589	1232.315526	1044.004644	-341.553303	1188.780301	1036.890946	-389.969500	1225.646035	1035.937125	-526.338915	1190.660984	1012.419257	-519.489453	1201.862663	940.107262	-524.116164	930.208943	947.435755	-594.023555	941.861100	955.809563	-533.785643	867.668037	992.816294	-252.719612	811.023506	845.331270	-398.167115	949.456018	747.136717	-397.170591	930.330258	709.347153	-411.097698	909.710557	762.009287	-272.354544	714.397744	459.467810	-261.794344	632.388698	432.603847	-225.906774	614.685673	457.144851	-301.007389	597.360125	405.437582	-400.954987	335.432294	297.203544	-454.555031	368.580501	234.947932	-434.637952	332.780967	249.916552	-490.345849	269.059682	232.843599	-614.531346	220.540214	137.547901	-702.032491	245.655217	155.405158	-598.192228	54.620062	167.150563	-582.126984	68.302062	124.118924	-208.395600	612.527588	899.487532	-147.969344	606.707033	922.583837	-128.034456	634.712908	929.488190	-91.238453	545.340044	899.107648	6.134118	497.692714	893.768697	162.619891	356.004981	827.152339	130.932533	259.902602	792.353708	174.689500	275.990124	801.984804	217.952075	259.294552	769.709451	206.699276	153.754822	729.027083	206.428488	122.220809	635.213575	370.876310	189.986918	776.949300	349.110625	168.937124	803.463220	306.331663	112.411329	807.712336	
612	3.055000	51.020342	1444.164052	978.286355	-49.817635	1448.121109	810.953805	-84.502307	1431.661098	931.609047	-127.087952	1324.494468	842.600516	-332.799979	1045.464161	784.003126	-53.694301	1180.423997	873.437946	-10.595591	1258.159194	753.624055	32.757858	1125.046867	622.914376	71.938802	1106.715948	643.480564	63.981954	1068.108366	598.385401	112.610693	962.385156	565.205961	84.137244	910.897499	619.612985	226.617635	1066.834861	767.917039	287.464561	1031.373117	744.404114	257.465678	1128.664953	757.105021	-126.191454	1250.799241	1025.854557	-304.126108	1234.655197	1054.527463	-322.587783	1191.244170	1046.805306	-370.996261	1228.122022	1045.029251	-506.823377	1192.815377	1018.998545	-498.388375	1203.607440	946.517504	-497.505384	931.816424	955.260802	-567.852949	941.970373	962.084684	-506.725167	869.389504	1000.777091	-229.475680	812.653376	856.130181	-372.990831	952.286714	756.231579	-371.571057	933.370121	718.306900	-386.248627	912.577020	770.586300	-247.501493	717.828680	470.320632	-239.200290	634.755812	443.829466	-204.207413	616.323923	468.895078	-279.169218	601.477453	416.197980	-384.871157	341.425076	306.595232	-437.998506	375.252375	244.399494	-418.329525	339.271249	259.209477	-474.511316	276.062334	241.481675	-598.937059	229.111638	145.107109	-684.693192	258.075566	164.803651	-590.810428	60.465873	172.668508	-574.786347	73.391597	129.664495	-185.147803	611.467232	907.237480	-124.818709	604.822377	930.431135	-104.687468	632.423763	937.890318	-68.496532	543.384703	906.295578	28.147446	495.648550	902.074760	184.910116	353.979687	837.352234	153.288141	257.576518	803.300168	197.292140	273.715004	812.816334	240.834789	256.858206	781.053261	229.946248	150.963190	740.927576	230.297057	119.039337	647.264187	394.222607	186.528977	789.692785	372.165578	165.679904	816.153959	329.131095	109.398873	820.403861	
